# xmcd
# 
# Track frame offsets:
#     150
#     10027
#     23805
#     34805
#     50055
#     62887
#     72977
#     87065
#     94440
#     103307
#     113625
#     127752
#     145370
#     161275
#     171895
#     183437
#     189607
#     202385
#     225567
#     247322
# 
# Disc length: 3407
# 
# Revision: 34
# Processed by: cddbd v1.5.2PL0 Copyright (c) Steve Scherf et al.
# Submitted via: fre:ac v1.0.27
# 
DISCID=210d4d14
DTITLE=Simon and Garfunkel - The Definitive Simon and Garfunkel
DYEAR=1991
DGENRE=Folk/Rock
TTITLE0=WEDNESDAY MORNING, 3.AM
TTITLE1=THE SOUND OF SILENCE
TTITLE2=HOMEWARD BOUND (Studio Version)
TTITLE3=KATHY' SONG (In Concert)
TTITLE4=I AM A ROCK
TTITLE5=FOR EMILY, WHENEVER I MAY FIND HER (In Concert)
TTITLE6=SCARBOROUGH FAIR/CANTICLE
TTITLE7=THE 59TH STREET BRIDGE SONG (FEELIN' GROOVY) (Studio Version)
TTITLE8=SEVEN O'CLOCK NEWS/SILENT NIGHT
TTITLE9=A HAZY SHADE OF WINTER
TTITLE10=EL CONDOR PASA (If I Could)
TTITLE11=MRS. ROBINSON
TTITLE12=AMERICA
TTITLE13=AT THE ZOO
TTITLE14=OLD FRIENDS
TTITLE15=BOOKENDS THEME
TTITLE16=CECILIA
TTITLE17=THE BOXER
TTITLE18=BRIDGE OVER TROUBLED WATER
TTITLE19=SONG FOR THE ASKING
EXTD=
EXTT0=
EXTT1=
EXTT2=
EXTT3=
EXTT4=
EXTT5=
EXTT6=
EXTT7=
EXTT8=
EXTT9=
EXTT10=
EXTT11=
EXTT12=
EXTT13=
EXTT14=
EXTT15=
EXTT16=
EXTT17=
EXTT18=
EXTT19=
PLAYORDER=
